<svg width="292" height="54" viewBox="0 0 292 54" fill="none" xmlns="http://www.w3.org/2000/svg">
<path d="M250.789 50.0973C210.331 47.4936 166.605 54.1009 127.734 49.7919C137.083 47.9736 148.146 49.6574 154.266 43.2127C145.824 42.2674 136.714 41.6771 128.642 40.2252C120.21 38.7086 113.515 35.5945 104.759 34.5347C84.8722 32.1277 64.58 29.9607 43.689 28.8445C29.4191 28.0821 17.2773 26.9371 10.6024 21.1195C8.93449 19.6658 4.83962 18.9231 0.461415 17.3515C5.21361 15.9933 9.20774 14.8518 13.0083 13.7656C11.805 13.4368 10.3349 13.035 7.47015 12.2521C12.7621 11.2943 16.7535 10.5718 22.029 9.61701C18.4438 8.40474 15.5742 7.43445 10.1465 5.59919C18.3414 5.10403 23.2716 4.80613 28.9931 4.46041C28.7588 3.96891 28.3812 3.17694 27.2021 0.703436C43.124 0.947346 57.9393 0.585494 71.842 1.49419C119.408 4.60299 166.94 7.79987 213.878 11.7232C232.068 13.2435 249.31 16.2759 265.685 19.6176C275.021 21.5227 281.736 25.4405 291.443 29.1427C284.553 30.2347 281.837 30.6653 279.119 31.1037C273.454 37.2589 288.938 36.2673 291.788 39.8899C289.296 40.0477 287.248 40.1774 286.008 40.2559C285.979 42.881 286.267 45.4006 285.619 47.9529C285.509 48.3836 281.365 48.9549 278.285 49.6388C278.65 50.1542 279.463 51.3019 280.975 53.434C270.036 52.2824 260.774 51.3074 250.789 50.0973Z" fill="#F18404" fill-opacity="0.5"/>
</svg>
