<svg width="784" height="401" viewBox="0 0 784 401" fill="none" xmlns="http://www.w3.org/2000/svg">
<path d="M346.72 131.38L343.343 135.881L341.093 138.132L336.592 140.607L335.916 142.633C335.916 142.633 334.115 144.434 334.341 145.56C334.567 146.686 334.567 148.711 334.567 148.711C334.567 148.711 331.416 151.637 330.065 152.537C328.714 153.437 326.913 155.463 326.913 155.463C326.913 155.463 325.788 156.814 325.113 157.264C324.438 157.713 323.313 159.064 322.412 160.415C321.511 161.766 320.611 162.665 320.161 163.34C319.711 164.015 318.36 165.591 317.685 168.067C317.01 170.544 315.209 173.469 315.209 173.469L314.758 174.594C314.984 178.421 314.983 179.096 315.434 180.447C315.884 181.797 316.335 181.346 315.884 184.273C315.434 187.198 315.434 188.324 314.984 189.675C314.534 191.024 313.183 193.5 312.734 194.627C312.283 195.752 313.634 197.777 313.634 197.777C313.634 197.777 314.31 200.704 313.859 201.379C313.409 202.055 314.084 203.405 314.084 203.405C314.084 203.405 316.785 204.98 317.686 205.881C318.586 206.781 320.162 208.132 320.387 208.807C320.613 209.483 322.413 212.634 322.638 213.309C322.863 213.984 324.664 216.459 325.114 217.135C325.564 217.811 327.815 220.287 327.815 220.287C327.815 220.287 330.741 222.536 331.417 223.437C332.092 224.337 334.118 224.787 334.792 225.462C335.468 226.137 337.043 225.911 337.943 226.588C338.844 227.263 340.644 226.137 341.545 226.588C342.445 227.038 344.922 226.138 345.597 225.688C346.272 225.238 347.847 223.663 348.973 224.337C350.098 225.011 350.773 224.337 351.674 224.562C352.573 224.787 353.924 223.663 354.824 223.663C355.725 223.663 357.975 222.762 358.65 222.762C359.326 222.762 361.577 221.41 362.478 221.41C363.377 221.41 364.503 220.512 365.628 220.961C366.753 221.41 366.303 220.062 368.329 220.736C370.355 221.41 371.03 220.736 371.705 221.41C372.381 222.086 373.282 221.412 373.957 222.312C374.632 223.211 375.757 223.886 375.982 224.787C376.206 225.688 377.557 226.589 377.557 226.589L378.908 226.813C378.908 226.813 380.71 225.463 381.159 226.364C381.609 227.264 383.635 227.04 383.635 227.04L385.66 229.29L386.336 230.19C386.336 230.19 387.687 233.792 387.461 235.142C387.236 236.492 387.236 239.418 386.561 240.093C385.886 240.769 385.436 243.695 385.436 243.695C385.436 243.695 384.535 244.595 386.561 246.396C388.587 248.198 389.938 249.772 390.613 250.671C391.289 251.572 393.09 254.049 393.313 255.624C393.539 257.199 393.989 258.099 394.89 260.125C395.79 262.151 396.915 262.376 397.14 264.628C397.366 266.878 397.815 266.879 397.59 268.453C397.365 270.029 396.69 270.254 397.365 271.379C398.04 272.505 398.939 274.531 398.716 275.206C398.491 275.881 398.04 278.807 398.04 278.807L397.59 280.158L395.565 283.986L394.214 286.01C393.764 287.585 392.864 289.16 393.089 291.411C393.313 293.662 391.964 293.661 393.764 295.911C395.565 298.163 396.464 300.639 397.59 302.665C398.716 304.69 399.391 306.716 399.615 308.066C399.841 309.417 400.741 309.869 401.191 311.669C401.64 313.47 401.866 314.369 401.866 315.495C401.866 316.62 401.64 319.546 402.092 320.221C402.541 320.896 402.767 322.924 402.992 323.824C403.217 324.725 402.316 324.95 403.667 326.526C405.018 328.101 405.918 329.001 406.818 330.127C407.718 331.253 407.493 330.802 408.169 332.378C408.844 333.953 409.744 334.855 409.97 336.204C410.195 337.554 410.419 340.93 411.095 342.506C411.77 344.082 412.67 345.658 412.67 345.658C412.67 345.658 415.147 347.233 416.047 347.008C416.946 346.783 418.748 344.759 420.099 345.433C421.45 346.108 422.575 345.433 423.7 345.433C424.825 345.433 425.951 344.082 427.077 344.082C428.202 344.082 429.777 342.281 430.679 342.732C431.579 343.181 432.703 342.28 433.829 341.155C434.955 340.031 435.63 339.13 437.655 337.329C439.681 335.528 439.456 335.528 440.806 334.403C442.157 333.277 443.508 330.801 445.083 330.351C446.658 329.901 447.108 328.327 447.558 327.201C448.009 326.075 448.233 325.4 448.909 324.499C449.585 323.6 449.134 324.727 450.26 321.799C451.386 318.872 452.738 317.748 453.863 317.072C454.988 316.397 455.663 315.047 456.338 314.821C457.013 314.595 458.139 315.496 457.689 313.47C457.24 311.445 457.689 308.519 457.24 307.844C456.789 307.167 456.113 309.417 456.339 306.04C456.566 302.665 459.04 299.289 459.04 299.289C459.04 299.289 462.416 295.013 463.542 294.338C464.668 293.663 464.892 292.988 466.469 292.087C468.043 291.188 471.42 288.937 471.42 287.811C471.42 286.685 472.771 283.759 472.771 283.083C472.771 282.408 472.771 281.733 472.322 277.906C471.871 274.081 472.771 274.98 471.421 271.379C470.071 267.778 469.844 263.276 468.945 262.151C468.044 261.025 468.494 258.098 468.494 257.199C468.494 256.299 470.071 254.048 470.746 253.148C471.421 252.247 474.347 248.645 474.347 248.645C474.347 248.645 478.848 243.469 480.424 240.994C482 238.517 483.575 236.267 484.7 235.367C485.826 234.467 488.527 232.439 490.102 230.189C491.678 227.939 494.829 223.663 495.055 222.986C495.279 222.312 497.079 220.061 497.079 220.061C497.079 220.061 499.555 217.134 500.006 215.559C500.455 213.983 502.705 205.205 502.255 205.655C501.807 206.106 499.105 206.555 498.204 206.78C497.305 207.006 499.556 207.905 493.027 207.456C486.501 207.005 483.125 208.131 483.125 208.131C481.098 207.68 479.523 209.931 478.847 206.78C478.172 203.63 477.721 201.829 476.372 199.578C475.021 197.327 474.12 196.427 472.096 193.5C470.071 190.575 470.294 191.924 468.493 189.675C466.693 187.424 466.242 188.098 465.117 185.173C463.992 182.247 463.092 183.373 461.741 179.321C460.39 175.268 459.49 174.818 458.815 172.568C458.139 170.318 457.24 169.641 456.789 167.616C456.339 165.59 451.163 155.237 450.487 154.561C449.811 153.887 448.686 150.284 448.911 150.96C449.137 151.635 452.288 153.886 452.288 153.886C452.288 153.886 454.088 153.21 454.764 153.21C455.439 153.21 458.14 155.687 458.14 156.586C458.14 157.487 462.869 161.764 463.993 164.915C465.118 168.066 466.471 170.317 466.694 171.217C466.917 172.117 469.17 175.719 470.071 177.07C470.97 178.421 473.896 181.121 474.346 182.472C474.796 183.823 479.074 188.324 479.074 191.25C479.074 194.176 481.098 198.002 481.324 198.902C481.55 199.802 485.6 200.929 485.6 200.929L491.003 199.578C491.003 199.578 499.105 194.4 500.006 194.4C500.905 194.4 508.11 191.024 508.11 191.024C508.11 191.024 511.035 188.324 513.06 186.749C515.086 185.173 517.337 182.248 517.788 180.896C518.237 179.545 519.138 179.321 520.938 177.294C522.739 175.268 525.215 173.243 523.64 171.892C522.064 170.542 521.163 170.992 518.913 168.741C516.662 166.491 516.887 166.941 515.311 164.014C513.735 161.089 515.536 157.712 512.159 161.089C508.784 164.465 510.134 165.365 506.757 166.042C503.382 166.716 502.03 168.967 500.455 166.716C498.88 164.465 497.305 165.816 496.403 162.439C495.503 159.063 494.827 158.837 494.603 157.488C494.379 156.137 494.603 156.137 492.802 152.76C491.002 149.384 492.352 144.207 493.477 147.133C494.603 150.059 496.403 150.509 499.33 152.535C502.255 154.56 503.607 156.137 506.307 156.362C509.008 156.586 511.259 156.362 511.709 156.811C512.159 157.262 512.609 156.587 513.735 157.036C514.861 157.487 515.309 156.362 515.76 158.161C516.21 159.962 518.686 160.187 519.811 161.312C520.937 162.437 520.937 161.988 523.864 162.437C526.791 162.888 530.843 162.888 530.843 162.888L535.118 162.662L540.07 163.111C540.07 163.111 543.673 165.137 544.572 165.137C545.472 165.137 545.697 167.614 547.948 168.964C550.199 170.315 550.649 170.539 551.999 172.115C553.352 173.691 553.125 174.366 554.925 175.941C556.727 177.518 559.654 175.717 560.104 175.043C560.552 174.367 562.803 173.242 562.355 175.043C561.904 176.843 564.604 176.167 563.929 180.445C563.254 184.72 562.803 183.595 563.929 186.522C565.054 189.448 570.006 198.451 570.232 201.152C570.458 203.853 571.807 202.953 572.032 205.43C572.258 207.905 573.607 208.805 573.607 210.606C573.607 212.407 575.184 212.856 575.408 214.208C575.635 215.559 578.11 214.432 578.785 214.208C579.461 213.982 582.611 211.056 582.611 211.056C582.611 211.056 583.964 210.607 583.737 208.355C583.511 206.106 583.737 206.555 583.737 203.179C583.737 199.803 582.387 199.803 583.062 196.428C583.737 193.052 585.537 191.025 585.988 189.45C586.438 187.875 588.239 185.174 589.138 184.948C590.038 184.723 594.991 182.248 596.117 180.671C597.242 179.096 599.043 177.295 600.844 175.495C602.644 173.695 605.795 171.444 606.471 172.119C607.146 172.794 606.921 172.569 608.047 172.569C609.172 172.569 611.198 173.47 612.773 173.695C614.349 173.92 617.501 177.746 618.176 179.772C618.851 181.798 618.401 181.347 620.877 184.274C623.353 187.199 625.604 185.398 625.604 189C625.604 192.602 625.604 192.376 626.73 193.727C627.855 195.078 629.205 191.251 630.555 191.702C631.905 192.153 632.13 191.252 633.255 194.853C634.38 198.455 635.055 198.455 635.282 202.056C635.506 205.657 635.056 202.281 635.056 205.206C635.056 208.133 634.83 208.358 635.282 211.058C635.731 213.761 637.305 214.661 637.082 215.111C637.082 215.111 638.432 211.285 637.981 208.583C637.533 205.883 637.981 202.057 639.107 200.932C640.232 199.805 641.359 198.681 642.258 201.607C643.159 204.532 643.609 202.282 645.634 205.658C647.661 209.035 649.461 208.358 649.686 209.934C649.911 211.51 651.039 211.736 652.612 213.085C654.188 214.436 655.538 212.861 657.339 211.51C659.141 210.159 664.091 205.207 664.318 203.181C664.542 201.156 666.568 201.605 662.966 196.43C659.364 191.253 659.364 189.452 655.538 186.301C651.714 183.15 649.462 182.925 652.389 178.873C655.315 174.821 656.666 172.121 658.466 173.247C660.267 174.372 663.416 174.146 663.416 178.649C663.416 183.15 662.516 188.102 665.667 182.7C668.818 177.298 670.395 174.147 669.493 175.049C668.594 175.949 671.519 173.248 671.519 173.248C671.519 173.248 671.745 171.222 675.572 170.322C679.397 169.42 680.522 168.971 681.874 168.296C683.224 167.62 687.051 163.118 687.726 161.093C688.401 159.067 690.202 155.466 689.752 153.891C689.302 152.314 687.05 144.663 686.6 144.887C686.151 145.113 686.376 145.113 683.451 141.962C680.523 138.811 678.498 136.56 678.048 135.209C677.598 133.858 676.472 133.633 677.822 131.833C679.174 130.033 679.849 130.258 680.074 128.682C680.298 127.107 682.098 125.756 678.722 126.882C675.347 128.007 677.822 127.333 674.896 127.108C671.97 126.882 664.318 128.683 668.145 123.957C671.97 119.23 673.094 116.305 673.77 116.305C674.447 116.305 677.823 112.478 678.047 116.079C678.273 119.68 679.622 118.779 679.848 121.03C680.074 123.281 684.575 118.555 684.575 118.555C684.575 118.555 686.15 119.005 687.275 120.13C688.401 121.255 688.401 124.857 688.401 124.857C688.401 124.857 687.501 123.731 689.977 125.532C692.454 127.334 695.153 126.432 695.153 130.259C695.153 134.085 695.153 134.311 696.729 135.211C698.306 136.111 699.879 135.662 701.232 134.536C702.582 133.411 704.832 129.359 704.832 129.359C704.832 129.359 705.057 127.783 701.456 125.532C697.855 123.282 695.604 121.707 694.255 120.581C692.903 119.456 693.354 116.08 694.703 114.728C696.056 113.377 696.729 112.702 696.279 110.902C695.828 109.1 696.955 107.75 700.331 107.975C703.707 108.201 704.382 107.751 704.382 107.751C704.382 107.751 705.059 108.2 705.059 106.85C705.059 105.5 709.334 99.1965 708.208 99.1965C707.083 99.1965 708.436 97.6215 707.758 95.1455C707.083 92.6685 710.009 88.8435 707.534 87.0425C705.058 85.2415 704.382 84.3405 702.807 81.6405C701.232 78.9385 701.455 78.4895 695.604 77.8135C689.752 77.1385 687.051 79.1645 685.7 77.3645C684.349 75.5635 683.675 80.0645 682.775 74.6625C681.875 69.2605 684.126 65.6585 684.126 65.6585C684.126 65.6585 687.727 63.4085 688.626 61.8325C689.526 60.2565 693.127 59.5815 696.056 60.7075C698.982 61.8325 703.257 61.6075 706.86 62.2845C710.461 62.9585 710.236 65.2095 712.037 62.2845C713.837 59.3565 712.037 58.0075 713.387 56.4315C714.739 54.8555 716.313 52.3795 717.438 53.9545C718.563 55.5315 720.817 57.1055 722.618 55.0795C724.418 53.0545 725.093 52.8295 725.093 52.8295L725.991 53.7305C725.991 53.7305 728.017 52.6035 728.017 54.6285C728.017 56.6555 730.044 58.9065 728.918 60.4815C727.791 62.0585 726.218 61.8325 726.218 65.6585C726.218 69.4865 726.218 68.8105 728.692 71.9625C731.169 75.1125 732.744 72.4115 733.194 75.7885C733.645 79.1645 734.093 78.4905 736.571 80.7405C739.047 82.9905 738.595 82.9905 740.397 84.3415C742.198 85.6925 743.099 87.0435 743.099 84.7925C743.099 82.5415 743.324 81.4165 743.099 79.3905C742.872 77.3655 744.9 75.7885 743.547 72.4125C742.197 69.0365 743.323 69.2615 740.622 66.7855C737.92 64.3105 736.119 67.2365 735.221 63.6345C734.32 60.0335 739.496 58.4575 740.848 58.0075C742.198 57.5585 744.222 54.8565 744.672 56.6575C745.123 58.4575 741.297 64.9855 747.825 58.0075C754.351 51.0305 751.426 53.9565 751.426 53.9565C751.426 53.9565 754.802 53.5065 755.477 53.9565C756.151 54.4075 757.955 51.9305 757.277 52.1565C756.602 52.3825 750.077 48.5545 750.077 48.5545L745.348 45.8545C745.348 45.8545 746.925 44.7285 748.05 44.9545C749.176 45.1795 749.402 42.7035 750.528 42.4775C751.653 42.2525 759.305 44.0545 760.882 44.9545C762.457 45.8545 768.083 46.0795 767.407 45.6295C766.732 45.1785 763.132 42.4785 762.906 41.5775C762.682 40.6775 754.803 38.8765 752.328 39.1015C749.851 39.3255 747.602 40.0005 745.576 39.3255C743.549 38.6505 740.624 36.8495 739.048 36.8495C737.473 36.8495 717.666 33.0235 716.766 33.2485C715.866 33.4735 714.514 37.7495 713.839 37.0745C713.164 36.3995 712.039 36.3985 708.886 35.4985C705.737 34.5985 701.459 33.9225 695.831 33.4735C690.205 33.0235 686.38 33.9235 684.804 32.1225C683.228 30.3225 679.853 30.9975 676.026 30.7715C672.2 30.5475 667.698 30.7715 665.672 30.7715C663.646 30.7715 658.921 30.5475 657.795 30.3215C656.669 30.0955 655.319 28.5205 653.969 28.2965C652.617 28.0705 652.842 27.6215 650.142 27.1715C647.441 26.7205 647.666 23.7955 646.766 26.2705C645.866 28.7475 646.315 28.0715 644.965 28.9715C643.614 29.8725 642.264 31.6725 641.363 31.6725C640.464 31.6725 636.863 31.8975 636.186 31.4475C635.51 30.9975 634.385 30.5475 632.134 30.5475C629.883 30.5475 629.883 30.7715 626.957 30.3215C624.031 29.8715 621.78 30.0955 619.079 28.7465C616.378 27.3955 616.378 26.4955 614.127 26.7205C611.878 26.9465 611.878 26.2705 608.725 26.2705C605.575 26.2705 601.749 28.0715 599.722 28.2965C597.698 28.5215 593.196 28.0705 591.62 27.3955C590.043 26.7205 589.594 25.1455 583.741 25.8195C577.889 26.4955 574.513 26.4955 575.638 24.6945C576.764 22.8945 578.114 21.0935 578.789 20.8685C579.465 20.6435 581.039 19.5185 579.913 19.0685C578.789 18.6175 577.663 17.9435 574.963 17.7175C572.261 17.4925 572.485 18.6175 568.435 18.1675C564.384 17.7175 570.686 16.5925 562.359 16.8175C554.031 17.0435 552.005 17.7175 551.105 17.7175C550.204 17.7175 549.078 15.9175 546.828 18.6175C544.577 21.3185 541.424 22.8935 536.924 23.1185C532.423 23.3445 532.197 22.6685 527.922 24.2435C523.645 25.8185 520.943 23.7935 521.844 27.3945C522.743 30.9955 523.87 32.3465 523.87 33.0215C523.87 33.6965 521.844 38.1985 519.369 35.4975C516.891 32.7965 512.39 22.2175 514.416 29.4205C516.441 36.6225 520.942 39.0995 516.667 40.2245C512.391 41.3495 512.839 39.7745 512.164 39.3235C511.49 38.8735 512.164 35.7225 511.939 33.9215C511.713 32.1215 511.264 30.9955 510.364 30.0955C509.465 29.1945 509.688 27.8445 507.888 27.3945C506.087 26.9445 507.663 26.0435 504.737 26.0435C501.811 26.0435 499.336 24.2425 500.011 28.2945C500.685 32.3455 501.36 29.6455 503.16 33.4715C504.96 37.2975 508.337 34.5965 505.862 37.2975C503.386 39.9985 496.859 39.0985 495.283 37.9735C493.707 36.8475 494.158 38.4235 491.23 36.3975C488.304 34.3715 489.206 32.7955 485.83 34.3715C482.454 35.9475 481.328 38.8735 479.977 37.7475C478.626 36.6215 475.476 39.3225 474.35 37.9735C473.224 36.6225 468.722 36.6225 467.823 37.9735C466.922 39.3235 464.221 39.0985 460.395 40.8995C456.569 42.6995 457.693 41.1235 452.967 44.9505C448.239 48.7765 445.538 51.9275 443.964 49.4515C442.388 46.9765 433.834 42.6995 437.211 42.0235C440.588 41.3485 442.163 39.9985 443.964 41.5735C445.765 43.1485 448.692 42.6995 449.14 41.5735C449.59 40.4475 451.617 39.3225 448.915 37.9725C446.214 36.6215 445.989 37.5215 441.713 35.9465C437.436 34.3705 441.713 34.8215 435.86 33.9205C430.008 33.0205 427.531 32.5705 425.956 32.1205C424.382 31.6705 422.13 32.1205 419.88 31.8955C417.628 31.6705 416.054 31.2205 414.027 31.4455C412.002 31.6705 410.877 31.2205 408.175 33.2465C405.473 35.2725 403.447 36.1725 401.647 37.7475C399.847 39.3225 395.121 42.4745 393.77 43.6005C392.419 44.7255 387.692 48.3265 387.242 49.6775C386.792 51.0285 387.692 52.1535 385.891 53.0535C384.09 53.9535 382.29 53.9535 380.939 54.1785C379.588 54.4035 380.939 52.1525 379.588 54.4035C378.238 56.6545 378.688 64.7575 379.813 63.6315C380.938 62.5055 380.263 58.9055 385.215 62.2825C390.167 65.6575 393.319 65.2075 393.093 68.3585C392.868 71.5095 396.469 71.2845 396.919 71.9605C397.369 72.6345 399.62 71.0595 399.62 71.0595C399.62 71.0595 404.572 67.9085 404.572 66.3335C404.572 64.7575 407.723 61.1565 407.723 61.1565C407.723 61.1565 405.471 60.0315 405.471 57.7805C405.471 55.5305 406.148 54.8535 406.597 52.6025C407.047 50.3525 404.121 52.6035 410.874 48.3255C417.625 44.0495 418.076 46.9765 418.076 46.9765C418.076 46.9765 418.975 47.8765 417.85 49.2265C416.725 50.5775 414.699 54.1795 414.249 54.6285C413.798 55.0795 416.275 58.6805 417.399 58.6805C418.525 58.6805 420.776 57.7795 422.127 58.0045C423.478 58.2305 425.728 57.3305 426.403 57.7805C427.079 58.2305 428.654 59.5805 427.528 60.7065C426.403 61.8315 423.926 63.1815 422.127 62.7325C420.325 62.2835 417.624 59.1305 419.2 63.6325C420.776 68.1345 418.975 69.2595 417.624 69.0345C416.275 68.8095 413.348 66.5595 413.798 69.9355C414.249 73.3105 410.873 75.5615 410.197 75.5615C409.521 75.5615 408.172 75.3365 408.172 75.3365C408.172 75.3365 406.145 75.1105 405.021 75.1105C403.895 75.1105 401.644 76.2355 400.969 77.1365C400.293 78.0365 399.393 77.3625 398.268 77.3625C397.143 77.3625 398.268 76.0115 396.017 75.5615C393.767 75.1115 392.416 74.6615 391.066 75.5615C389.715 76.4615 387.69 76.9115 386.789 76.2365C385.889 75.5615 387.24 73.9845 385.438 74.8865C383.638 75.7865 382.287 78.2625 381.612 78.4885C380.937 78.7125 383.638 78.4885 380.937 78.7125C378.236 78.9385 377.111 79.6145 375.76 80.0635C374.409 80.5145 376.21 83.2145 373.734 84.1145C371.258 85.0145 373.06 82.9895 370.583 85.0145C368.107 87.0415 367.656 88.8415 366.757 89.0665C365.856 89.2925 366.082 89.7415 364.056 89.9665C362.03 90.1915 362.256 90.4165 361.129 90.6415C360.004 90.8665 361.355 91.3175 358.879 90.8665C356.402 90.4165 354.602 91.3175 355.052 92.2175C355.502 93.1175 363.83 95.5935 357.528 95.3685C351.226 95.1435 353.252 96.2685 354.602 97.1685C355.953 98.0685 356.627 98.9685 357.303 99.1945C357.979 99.4195 359.103 102.122 359.103 102.122C359.103 102.122 360.904 101.896 359.779 103.472C358.654 105.048 360.229 105.498 359.103 107.524C357.978 109.55 357.978 108.199 357.078 108.649C356.178 109.098 354.827 110.675 352.35 109.324C349.874 107.973 348.075 107.298 345.148 107.074C342.222 106.848 344.247 106.399 342.222 107.973C340.196 109.55 339.746 111.35 339.972 113.375C340.197 115.4 340.422 118.102 339.746 119.453C339.071 120.803 339.071 122.154 339.52 124.18C339.971 126.205 341.322 127.107 341.322 127.107C341.322 127.107 344.473 127.556 345.148 127.782C345.823 128.007 347.174 127.332 348.974 128.456C350.775 129.582 352.576 130.033 353.701 128.682C354.826 127.332 359.328 125.756 360.68 124.406C362.03 123.055 362.93 122.606 362.255 121.255C361.58 119.904 363.606 116.528 364.731 115.853C365.856 115.178 368.332 114.502 368.332 114.502L371.033 110.451C371.033 110.451 373.284 107.974 374.409 108.2C375.534 108.425 381.836 110.677 381.387 107.751C380.937 104.824 381.837 103.924 382.512 105.049C383.187 106.174 384.988 105.724 384.988 105.724C384.988 105.724 385.888 105.275 386.563 105.95C387.238 106.624 388.138 109.552 389.489 110.226C390.84 110.902 391.965 111.577 392.866 112.026C393.766 112.477 394.667 112.026 396.468 113.602C398.268 115.178 400.069 116.079 400.293 116.753C400.52 117.428 402.095 119.004 402.095 119.004C402.095 119.004 403.67 119.454 403.22 120.355C402.77 121.255 400.52 123.957 399.394 124.406C398.268 124.856 395.343 123.955 396.468 124.856C397.592 125.756 399.169 126.882 399.844 126.206C400.52 125.531 404.795 121.029 404.795 121.029C404.795 121.029 404.57 121.254 404.795 119.903C405.021 118.554 404.795 116.978 405.921 117.653C407.046 118.329 407.722 119.229 408.172 118.329C408.622 117.428 409.072 117.879 407.946 117.204C406.82 116.528 404.12 112.702 402.769 112.477C401.418 112.251 398.041 110 398.041 110C398.041 110 397.367 109.325 395.791 107.525C394.215 105.724 393.766 106.174 393.314 104.598C392.865 103.023 391.513 100.997 393.99 101.447C396.467 101.897 398.041 103.472 400.292 104.823C402.543 106.174 402.094 106.623 404.119 107.974C406.144 109.325 406.371 110.676 407.945 110.451C409.52 110.226 411.322 111.351 411.322 113.377C411.322 115.403 411.771 117.653 412.221 118.104C412.672 118.555 414.021 119.455 414.472 120.355C414.922 121.255 415.823 123.506 416.497 124.406C417.173 125.306 417.848 125.982 418.523 127.108C419.198 128.233 419.423 126.882 420.098 127.333C420.774 127.783 421.674 127.557 421.674 126.657C421.674 125.757 421.898 124.181 421.898 124.181C421.898 124.181 425.051 123.281 424.151 122.83C423.25 122.38 420.548 119.679 420.774 118.779C420.999 117.879 420.774 116.079 421.898 116.304C423.024 116.528 424.15 118.554 426.626 116.753C429.102 114.952 432.028 114.052 431.127 116.753C430.228 119.454 431.354 119.903 431.127 122.83C430.903 125.757 432.029 124.856 433.605 126.432C435.18 128.008 436.305 128.234 437.43 128.683C438.556 129.134 440.356 128.909 442.158 129.134C443.959 129.359 445.084 128.458 446.66 128.909C448.234 129.359 451.836 128.683 452.512 129.134C453.188 129.584 455.889 128.234 456.113 129.809C456.338 131.385 457.239 129.584 456.564 133.185C455.889 136.786 454.988 139.262 454.988 139.262C452.512 143.989 451.612 145.115 450.486 145.34C449.362 145.565 448.686 146.24 446.661 146.015C444.635 145.789 442.159 146.015 439.233 145.34C436.307 144.664 430.904 146.015 428.654 144.664C426.403 143.314 423.252 144.439 421.9 142.864C420.55 141.288 418.3 141.513 417.399 140.613C416.499 139.713 416.049 137.238 416.049 140.839C416.049 144.441 414.023 144.665 413.573 146.466C413.122 148.266 414.247 147.366 411.771 147.141C409.295 146.915 408.62 148.266 405.019 145.566C401.417 142.865 399.617 142.865 397.817 141.739C396.015 140.613 394.215 143.764 392.415 140.164C390.614 136.562 388.138 139.488 387.913 136.562C387.688 133.635 387.913 133.862 388.138 132.061C388.365 130.26 390.839 128.685 389.714 128.01C388.588 127.335 389.488 126.209 387.913 126.885C386.337 127.56 384.087 127.785 382.286 128.46C380.485 129.136 386.337 128.46 377.559 129.136C368.781 129.811 366.304 130.711 366.304 130.711C366.304 130.711 365.629 130.261 364.503 131.161C363.378 132.061 361.802 133.412 360.227 132.737C358.652 132.061 357.751 132.286 356.401 132.512C355.05 132.737 354.151 131.387 352.575 132.512C350.999 133.636 349.199 134.087 348.523 133.636C347.823 133.176 346.693 131.376 346.693 131.376L346.72 131.38Z" fill="#B2B2B2" fill-opacity="0.15"/>
<path d="M497.3 279.48C496.625 281.957 494.149 285.557 494.149 285.557L489.646 287.808C489.646 287.808 488.073 289.159 487.171 289.384C486.271 289.608 484.02 290.735 484.02 290.735C484.02 290.735 481.995 290.284 482.669 292.309C483.344 294.335 483.57 296.812 483.344 297.486C483.12 298.162 483.12 299.513 483.12 301.314C483.12 303.114 482.445 305.364 481.319 305.814C480.194 306.265 479.068 306.715 479.293 308.291C479.519 309.867 479.519 314.593 479.519 314.593L482.446 319.095C482.446 319.095 483.346 318.42 485.147 318.42C486.946 318.42 488.748 316.846 488.748 316.846C488.748 316.846 490.775 317.294 490.548 314.82C490.323 312.343 491.45 309.418 491.223 308.742C490.999 308.067 493.25 305.14 493.25 304.466C493.25 303.79 495.501 300.641 495.501 299.514C495.501 298.389 497.076 296.588 497.301 295.239C497.526 293.887 497.751 290.737 498.201 289.837C498.652 288.937 498.877 288.036 498.877 287.136C498.877 286.236 498.877 284.435 498.877 284.435L497.277 279.475L497.3 279.48Z" fill="#B2B2B2" fill-opacity="0.15"/>
<path d="M673.54 309.87C672.865 310.769 672.415 320.449 671.965 321.574C671.515 322.699 670.614 328.552 671.066 329.901C671.515 331.253 672.19 336.204 671.741 337.78C671.29 339.355 671.966 344.307 670.839 344.082C669.715 343.856 669.266 344.308 669.266 344.982C669.266 345.658 670.839 347.007 670.839 347.007C670.839 347.007 673.542 347.008 674.667 346.782C675.792 346.557 678.043 345.431 679.844 345.431C681.645 345.431 682.771 344.08 684.345 344.08C685.921 344.08 689.298 342.956 690.198 343.405C691.098 343.854 692.448 340.704 694.024 341.38C695.6 342.055 698.977 339.804 700.552 339.804C702.126 339.804 702.803 337.327 704.604 337.779C706.404 338.229 709.781 336.879 711.357 337.552C712.93 338.229 715.408 335.302 716.533 337.552C717.659 339.804 721.036 340.704 721.036 341.829C721.036 342.954 720.808 345.431 720.808 345.431L723.51 345.205C723.51 345.205 727.785 342.504 728.462 342.504C729.137 342.504 730.713 340.254 730.713 341.38C730.713 342.504 729.361 344.982 728.912 346.106C728.462 347.232 729.361 348.583 729.361 348.583C729.361 348.583 731.614 349.708 730.713 351.733C729.812 353.759 730.937 353.31 730.713 354.884C730.487 356.46 730.713 355.784 731.611 356.684C732.513 357.585 734.09 359.163 735.439 358.936C736.791 358.71 737.239 357.361 738.365 358.036C739.49 358.711 741.74 358.261 742.415 359.162C743.093 360.061 738.14 362.312 746.693 358.487C755.246 354.659 756.144 353.759 757.27 352.408C758.399 351.058 759.749 349.708 760.647 348.807C761.548 347.907 760.874 348.132 763.573 346.106C766.274 344.081 766.274 344.981 768.752 341.154C771.228 337.329 773.027 335.978 773.479 335.302C773.929 334.626 774.829 334.402 775.054 331.699C775.279 328.999 777.079 326.523 777.079 325.623C777.079 324.724 777.754 323.374 777.529 321.797C777.304 320.221 778.43 317.972 777.079 315.721C775.728 313.469 777.754 312.571 775.728 311.668C773.702 310.768 772.352 311.219 771.902 309.643C771.451 308.067 769.65 308.292 768.975 304.016C768.3 299.74 765.599 299.288 765.599 299.288C765.599 299.288 762.898 298.163 763.573 297.714C764.25 297.263 764.474 294.111 764.25 293.211C764.024 292.311 764.024 290.285 763.35 288.936C762.675 287.584 762.224 285.785 761.549 284.208C760.874 282.633 759.749 282.182 759.298 280.382C758.847 278.582 758.172 277.905 757.948 277.456C757.721 277.006 757.27 274.756 756.822 277.23C756.372 279.706 755.47 284.432 755.47 284.432C755.47 284.432 753.669 288.26 752.994 289.385C752.319 290.509 751.644 293.436 750.519 293.21C749.393 292.985 748.716 294.337 747.818 294.11C746.917 293.884 745.567 294.336 744.892 293.661C744.217 292.985 742.416 291.185 741.515 290.959C740.615 290.735 739.94 288.935 739.264 288.935C738.587 288.935 737.463 287.358 737.689 286.458C737.913 285.558 738.138 283.533 738.364 282.632C738.588 281.732 739.94 279.705 739.94 279.705C739.94 279.705 739.94 278.355 738.814 278.355C737.689 278.355 737.463 278.355 734.987 278.129C732.512 277.903 731.838 277.679 730.935 277.679C730.037 277.679 731.837 277.229 729.36 277.904C726.885 278.581 725.759 280.381 724.183 281.957C722.61 283.532 723.959 283.081 722.61 283.532C721.257 283.983 721.484 282.406 720.583 284.883C719.682 287.359 721.034 288.033 720.356 288.484C719.681 288.935 714.956 286.909 714.956 286.909C714.956 286.909 716.081 286.683 715.18 285.558C714.281 284.432 713.38 282.858 712.031 283.533C710.678 284.208 709.552 284.659 708.654 285.784C707.753 286.909 707.753 287.809 707.078 288.709C706.403 289.609 704.603 289.609 704.377 290.51C704.152 291.411 704.152 293.661 703.478 293.886C702.803 294.112 702.578 292.988 701.903 292.762C701.228 292.537 701.452 290.736 701.003 291.862C700.553 292.987 700.103 292.761 699.428 294.562C698.751 296.363 698.527 297.939 697.852 298.164C697.177 298.39 697.852 298.614 695.825 299.74C693.801 300.865 693.35 300.865 690.425 302.216C687.5 303.567 688.175 303.567 686.149 303.791C684.124 304.017 683.672 304.692 682.322 304.917C680.97 305.142 680.072 305.366 678.72 306.717C677.37 308.068 676.245 308.517 675.345 308.743C674.445 308.969 673.585 309.853 673.585 309.853L673.54 309.87Z" fill="#B2B2B2" fill-opacity="0.15"/>
<path d="M686.82 220.96C685.921 222.312 682.995 226.362 681.87 226.588C680.744 226.812 679.618 227.939 678.718 227.713C677.818 227.487 675.792 227.713 675.117 230.639C674.442 233.565 673.316 235.141 672.639 234.915C671.964 234.69 673.764 239.191 669.939 237.392C666.114 235.591 667.464 238.968 667.013 239.869C666.563 240.768 667.688 243.245 667.913 244.145C668.14 245.045 668.813 246.621 669.714 247.97C670.614 249.321 671.289 250.896 672.865 250.448C674.441 249.996 679.391 250.448 679.391 250.448C679.391 250.448 681.194 251.123 682.318 251.123C683.443 251.123 683.669 250.673 684.343 250.673C685.017 250.673 686.368 248.421 686.144 248.197C685.919 247.97 685.245 247.296 686.594 245.945C687.945 244.594 689.52 244.145 689.746 242.569C689.971 240.994 689.296 240.994 689.971 240.092C690.646 239.192 692.221 239.419 691.772 238.517C691.321 237.617 692.221 237.842 691.321 236.04C690.422 234.24 689.295 233.564 690.195 231.313C691.096 229.063 691.998 228.612 691.772 227.262C691.546 225.91 692.897 225.461 691.321 223.885C689.747 222.311 689.071 221.86 687.945 221.408L686.835 220.948L686.82 220.96Z" fill="#B2B2B2" fill-opacity="0.15"/>
<path d="M730.94 243.47C731.842 243.245 734.992 240.994 735.218 245.046C735.443 249.097 735.666 247.971 737.019 250.222C738.369 252.473 739.267 253.15 740.843 252.024C742.418 250.897 744.219 250.897 744.669 248.873C745.12 246.847 745.12 246.847 746.47 246.847C747.823 246.847 748.271 246.622 748.949 247.524C749.623 248.422 750.071 247.522 752.999 249.098C755.925 250.674 758.4 250.222 760.203 251.799C762.004 253.374 762.904 253.151 765.379 254.05C767.855 254.95 766.729 253.6 768.98 256.076C771.232 258.551 770.333 259.226 771.456 260.352C772.581 261.477 773.483 259.451 773.032 262.152C772.581 264.853 769.431 262.152 774.158 265.977C778.884 269.805 779.56 270.481 781.134 271.605C782.711 272.731 783.836 274.082 782.487 274.082C781.134 274.082 776.859 274.082 776.41 273.406C775.959 272.731 773.934 272.28 772.582 270.705C771.233 269.131 768.307 268.004 767.633 266.654C766.956 265.302 766.056 264.853 764.931 264.853C763.806 264.853 762.681 266.203 761.104 267.779C759.528 269.354 760.206 266.88 758.178 267.554C756.151 268.23 753.903 267.328 752.776 266.428C751.65 265.528 751.877 264.178 750.077 264.853C748.274 265.528 747.151 265.078 747.826 263.728C748.501 262.376 748.05 260.576 748.05 260.576C748.05 260.576 748.727 258.325 747.152 257.876C745.576 257.427 745.576 255.851 744 255.399C742.423 254.95 739.949 253.824 739.949 253.824C739.949 253.824 739.724 253.824 739.048 253.599C738.373 253.373 738.373 253.373 736.572 252.924C734.772 252.473 733.42 252.922 732.521 251.798C731.619 250.673 732.07 249.097 732.07 249.097C732.07 249.097 735.671 249.547 732.07 246.846L728.469 244.146C728.469 244.146 728.917 243.92 728.693 243.47C728.463 243.01 730.943 243.46 730.943 243.46L730.94 243.47Z" fill="#B2B2B2" fill-opacity="0.15"/>
<path d="M629.65 224.779C629.65 224.779 630.775 225.906 632.576 225.68C634.376 225.454 635.725 229.281 636.853 230.631C637.977 231.982 638.654 232.657 641.129 234.233C643.604 235.808 643.379 232.882 646.756 237.609C650.132 242.335 648.556 239.41 650.132 242.335C651.707 245.264 652.608 246.838 653.508 247.515C654.407 248.19 655.084 249.989 655.31 250.665C655.534 251.34 657.109 253.365 657.109 254.041C657.109 254.716 657.56 256.517 656.21 258.092C654.859 259.668 653.733 259.893 653.733 259.893C653.733 259.893 651.032 258.542 650.132 257.192C649.231 255.842 648.107 254.716 646.53 252.016C644.955 249.314 643.154 246.388 642.254 245.038C641.354 243.686 640.003 242.335 639.328 240.986C638.653 239.634 636.852 235.584 635.952 235.133C635.052 234.682 634.826 233.333 633.25 231.757C631.676 230.181 631.9 228.831 631.225 227.931C630.55 227.031 628.975 225.003 628.975 225.003L629.635 224.783L629.65 224.779Z" fill="#B2B2B2" fill-opacity="0.15"/>
<path d="M191.87 400.349C190.294 399.449 186.918 397.873 185.793 396.973C184.668 396.073 181.292 391.119 181.292 391.119L178.815 386.392C178.815 386.392 175.89 382.791 176.565 381.441C177.24 380.09 178.591 379.19 178.591 378.515C178.591 377.84 179.941 376.038 178.815 375.364C177.69 374.688 177.69 374.464 177.014 372.438C176.339 370.413 176.339 368.61 175.439 368.161C174.538 367.712 173.863 364.785 172.963 364.56C172.063 364.334 171.162 362.759 171.162 362.759L169.811 344.527C169.811 344.527 169.36 336.2 168.911 334.398C168.46 332.598 169.586 328.772 168.46 325.395C167.335 322.019 168.686 317.968 168.01 316.617C167.335 315.266 168.46 311.441 167.785 307.84C167.11 304.239 170.486 299.737 167.785 298.387C165.084 297.035 167.11 295.01 164.859 295.01C162.609 295.01 161.033 293.884 159.007 292.31C156.981 290.734 153.154 287.807 152.029 286.681C150.904 285.557 147.302 282.63 146.177 281.73C145.052 280.83 143.926 277.003 143.026 275.877C142.126 274.753 141.676 271.377 140.325 269.351C138.974 267.326 137.174 263.95 136.723 263.274C136.273 262.599 131.321 256.747 131.321 256.747L131.771 253.146C131.771 253.146 135.147 251.12 134.697 250.445C134.247 249.769 134.923 249.093 133.346 247.744C131.77 246.392 131.995 243.916 133.346 242.792C134.697 241.665 136.722 238.064 136.722 238.064L140.098 232.438C140.098 232.438 142.8 229.51 142.8 227.485C142.8 225.46 146.626 224.11 144.375 222.309C142.124 220.507 143.25 218.932 142.574 217.581C141.898 216.231 142.349 215.331 144.375 213.98C146.401 212.629 150.002 207.678 150.002 207.678C150.002 207.678 152.703 207.002 153.378 207.002C154.053 207.002 155.179 199.798 157.205 204.525C159.231 209.252 159.906 206.776 159.231 210.152C158.555 213.528 160.131 212.854 161.031 211.954C161.931 211.052 160.58 212.629 162.381 208.576C164.181 204.525 163.507 203.175 164.632 204.301C165.757 205.427 166.207 205.652 168.233 206.327C170.258 207.002 170.934 206.776 171.608 208.127C172.283 209.478 172.059 207.677 175.885 208.353C179.711 209.029 185.113 207.002 184.438 209.252C183.763 211.503 182.412 209.027 185.563 211.503C188.714 213.98 189.165 214.429 190.965 214.88C192.765 215.33 194.341 215.105 197.043 217.806C199.744 220.506 200.419 220.732 201.094 222.081C201.769 223.433 202.894 222.532 204.02 223.882C205.145 225.234 206.721 225.234 208.296 225.234C209.871 225.234 208.296 223.882 210.772 225.684C213.249 227.484 215.049 227.708 216.174 231.31C217.299 234.914 219.55 234.687 217.749 238.289C215.949 241.891 212.348 243.466 213.923 243.241C215.498 243.015 218.425 241.664 219.325 241.89C220.225 242.114 220.675 241.215 222.026 241.89C223.377 242.565 223.602 240.99 223.377 242.565C223.151 244.141 223.151 242.565 223.151 244.141C223.151 245.716 222.701 242.565 225.402 243.241C228.103 243.916 226.527 241.889 229.678 244.816C232.83 247.743 232.83 246.843 233.954 248.418C235.08 249.992 236.205 247.519 236.881 248.193C237.557 248.867 239.582 248.417 241.608 248.868C243.634 249.317 242.283 247.518 245.435 249.543C248.585 251.568 251.737 250.893 252.412 252.694C253.087 254.494 254.889 253.819 255.788 254.945C256.687 256.071 257.138 254.494 258.039 256.071C258.939 257.645 261.641 257.195 261.19 258.77C260.739 260.347 261.864 259.446 261.414 261.696C260.965 263.949 259.388 267.55 258.039 268.449C256.688 269.35 256.689 270.475 255.788 271.6C254.888 272.727 255.113 270.475 253.987 273.626C252.862 276.778 253.087 277.228 252.187 280.153C251.287 283.078 251.962 280.153 251.287 283.079C250.612 286.005 251.062 287.806 250.387 291.183C249.712 294.558 249.937 294.559 249.487 297.035C249.037 299.511 250.612 295.911 248.586 301.086C246.561 306.264 246.336 306.037 245.661 308.289C244.985 310.541 245.886 308.739 243.41 310.09C240.934 311.442 242.285 310.99 239.358 311.891C236.433 312.791 232.831 313.693 231.706 313.917C230.581 314.141 226.079 315.492 227.43 318.192C228.781 320.894 228.781 321.344 227.43 324.721C226.079 328.096 224.054 329.223 224.054 330.797C224.054 332.372 223.153 333.947 222.929 335.073C222.703 336.199 224.954 333.947 222.254 337.324C219.553 340.7 219.328 339.8 218.427 341.826C217.527 343.851 218.427 342.275 217.527 343.851C216.627 345.426 214.376 346.101 214.376 346.101C214.376 346.101 214.6 347.227 213.7 346.777C212.799 346.328 213.025 347.002 209.648 346.101C206.272 345.201 205.822 342.952 205.372 344.526C204.922 346.101 205.597 347.003 207.623 348.578C209.648 350.154 213.025 350.603 212.124 352.18C211.224 353.756 211.224 353.756 210.549 354.656C209.873 355.557 211.449 354.881 209.873 355.557C208.298 356.232 207.397 359.159 206.722 359.159C206.047 359.159 205.596 360.284 204.696 359.834C203.796 359.383 201.546 357.808 201.095 358.708C200.645 359.607 199.744 357.582 199.969 360.733C200.195 363.884 200.645 365.685 199.519 366.361C198.394 367.036 195.692 366.361 195.692 366.361L195.242 365.235L193.667 365.685C193.667 365.685 192.992 368.386 194.117 368.836C195.242 369.286 195.017 369.735 196.142 371.086C197.268 372.437 196.593 374.913 196.593 374.913C196.593 374.913 196.593 375.589 195.468 376.714C194.343 377.839 193.892 378.74 193.667 379.415C193.441 380.09 192.091 383.017 194.117 382.791C196.142 382.565 197.719 381.44 197.719 385.042C197.719 388.643 198.619 387.744 197.494 390.219C196.368 392.695 195.468 392.92 195.243 395.17C195.019 397.421 195.469 397.646 195.919 398.997C196.369 400.348 197.495 399.672 196.369 400.348C195.249 400.988 191.879 400.318 191.879 400.318L191.87 400.349Z" fill="#B2B2B2" fill-opacity="0.15"/>
<path d="M133.8 217.13L132.225 214.88C132.225 214.88 131.55 213.528 130.424 213.304C129.298 213.08 126.822 210.153 126.822 210.153C126.822 210.153 125.697 209.253 125.697 207.678C125.697 206.102 124.796 203.627 125.471 200.926C126.147 198.226 126.372 194.849 126.147 193.948C125.921 193.048 127.272 192.823 125.697 191.922C124.121 191.022 120.97 190.797 118.944 190.797C116.919 190.797 114.442 191.473 113.992 191.697C113.542 191.922 116.468 184.945 116.918 183.82C117.368 182.695 119.394 177.742 119.394 177.068C119.394 176.392 120.069 176.167 118.719 175.268C117.369 174.367 115.118 173.917 113.767 174.592C112.417 175.268 112.642 173.692 111.517 176.392C110.392 179.094 109.266 182.02 107.915 182.47C106.565 182.921 103.864 184.271 103.864 184.271C103.864 184.271 100.488 184.046 99.3621 183.821C98.2371 183.596 93.5101 181.12 92.6101 179.545C91.7101 177.969 91.2601 174.592 91.2601 173.018C91.2601 171.442 93.7351 166.716 93.5101 165.59C93.2851 164.465 95.9871 159.963 95.7611 159.287C95.5351 158.612 96.2111 156.361 96.8861 155.461C97.5611 154.561 100.938 153.435 101.838 152.535C102.738 151.634 104.314 150.51 105.889 150.059C107.464 149.608 108.816 149.159 109.941 149.159C111.066 149.159 113.992 146.683 114.442 149.159C114.893 151.634 116.919 150.734 118.044 150.959C119.169 151.185 119.395 152.31 121.195 149.384C122.996 146.457 124.796 145.557 124.796 146.232C124.796 146.908 127.722 146.008 128.172 146.683C128.622 147.358 129.523 146.232 131.098 147.583C132.674 148.934 134.924 149.159 134.699 149.833C134.474 150.508 135.599 150.508 135.599 151.184C135.599 151.859 136.5 149.608 136.5 153.659C136.5 157.711 137.625 160.187 137.625 160.187C137.625 160.187 139.2 163.564 139.875 162.888C140.55 162.213 141.9 160.413 141.9 160.413C141.9 160.413 144.151 159.062 142.576 154.335C141 149.609 142.126 148.258 141.676 146.682C141.225 145.106 141.225 144.205 143.926 142.18C146.627 140.155 153.154 135.653 154.73 134.753C156.305 133.853 159.906 131.377 159.906 131.377C159.906 131.377 161.256 130.702 161.482 128.901C161.707 127.101 165.983 123.949 166.209 123.049C166.435 122.149 169.361 119.899 169.361 119.899C169.361 119.899 172.511 118.097 172.286 116.973C172.061 115.848 176.338 113.823 177.013 113.823C177.688 113.823 181.29 114.947 181.29 112.921C181.29 110.896 181.29 110.445 183.541 108.645C185.791 106.845 188.717 104.143 189.843 104.143C190.968 104.143 194.795 102.119 196.37 101.668C197.946 101.217 202.898 98.9657 198.396 101.668C193.894 104.368 196.82 102.793 195.92 105.044C195.021 107.294 194.344 110.221 198.621 106.844C202.898 103.468 202.672 102.792 204.248 102.568C205.824 102.343 204.698 103.243 208.074 102.117C211.451 100.992 211.676 100.542 211.676 100.542C211.676 100.542 213.252 99.1907 212.351 98.5167C211.451 97.8407 213.252 96.9407 209.875 98.2907C206.499 99.6417 206.724 99.8667 204.473 99.1907C202.223 98.5157 198.846 98.7397 201.322 96.4887C203.798 94.2387 206.949 93.5627 204.923 92.6627C202.898 91.7627 197.721 92.8887 197.046 93.1127C196.37 93.3377 194.795 92.8877 193.444 93.1127C192.094 93.3377 192.544 91.3137 193.444 90.8627C194.345 90.4117 197.271 89.0607 200.872 88.1607C204.473 87.2607 213.252 87.0357 215.277 87.0357C217.302 87.0357 220.003 87.4867 221.579 86.3607C223.154 85.2357 226.306 83.4357 226.756 82.5337C227.207 81.6337 229.007 80.2837 229.007 80.2837C229.007 80.2837 231.032 78.2577 229.907 77.3577C228.782 76.4577 227.656 74.4317 226.756 74.8817C225.856 75.3317 226.532 78.0337 224.731 75.1067C222.93 72.1817 223.155 71.7307 222.255 71.0557C221.355 70.3807 220.454 70.8297 221.13 67.6797C221.805 64.5287 221.58 63.1777 221.58 63.1777C221.58 63.1777 222.255 60.4777 221.58 60.2527C220.904 60.0267 220.455 59.3527 219.33 60.0267C218.204 60.7017 211.902 63.8537 210.552 64.5287C209.201 65.2037 207.4 61.8277 208.075 60.2527C208.751 58.6757 208.3 59.5767 207.4 57.3267C206.5 55.0757 202.899 54.6247 201.548 54.6247C200.197 54.6247 197.047 52.5987 196.146 53.9497C195.246 55.2997 190.52 59.5757 189.618 60.0267C188.718 60.4777 187.368 56.2007 186.693 63.1777C186.017 70.1567 189.169 72.1817 185.568 72.6317C181.967 73.0817 178.815 75.1067 178.815 75.1067C178.815 75.1067 175.89 75.3327 175.89 77.1327C175.89 78.9347 174.765 83.2097 173.413 83.6597C172.063 84.1107 168.686 83.4357 167.561 82.0847C166.436 80.7337 167.786 75.7827 167.786 75.7827L169.812 73.7567C169.812 73.7567 155.407 71.5067 155.631 70.6057C155.857 69.7057 151.355 68.1307 150.905 66.7797C150.455 65.4287 150.229 62.5027 150.68 61.3777C151.13 60.2527 157.207 54.8507 160.358 53.7257C163.509 52.5997 168.911 50.1247 170.487 49.6737C172.063 49.2237 174.763 49.4487 175.664 48.3237C176.564 47.1977 176.789 45.1727 176.789 45.1727C176.789 45.1727 176.339 42.0207 177.239 42.4707C178.139 42.9217 179.715 43.5967 179.94 44.2717C180.166 44.9467 180.166 46.5227 181.741 44.7207C183.317 42.9207 185.343 42.2447 187.143 41.3457C188.944 40.4447 191.644 40.6707 193.221 39.7707C194.796 38.8707 197.497 37.9697 197.722 35.7187C197.947 33.4687 197.047 34.1437 195.921 33.9177C194.796 33.6937 196.371 34.1437 192.545 35.9437C188.718 37.7437 189.844 36.3937 187.143 37.7437C184.442 39.0947 184.216 39.3197 183.992 38.1947C183.766 37.0687 184.442 35.2687 184.442 35.2687C184.442 35.2687 184.668 35.0427 183.092 34.5937C181.516 34.1437 181.516 34.8187 181.291 32.7937C181.066 30.7677 182.416 27.8417 180.166 28.7417C177.915 29.6417 175.89 28.0667 174.314 32.5677C172.738 37.0687 167.336 41.7967 165.985 40.6707C164.635 39.5457 164.41 39.3197 163.284 39.3197C162.158 39.3197 160.583 37.9697 158.557 37.7447C156.531 37.5197 150.453 37.5197 148.879 37.7447C147.303 37.9707 145.503 36.8447 144.151 38.1957C142.801 39.5457 140.776 41.3467 140.776 42.0227C140.776 42.6977 138.75 39.5457 138.075 39.7717C137.4 39.9967 135.598 38.8717 133.574 38.8717C131.548 38.8717 130.197 37.7457 129.523 37.7457C128.848 37.7457 130.197 35.9447 129.523 35.7197C128.848 35.4957 114.216 35.0447 114.216 35.0447C114.216 35.0447 109.49 33.2447 107.69 33.4697C105.889 33.6947 100.938 33.9187 97.1101 34.5947C93.2831 35.2697 87.6561 37.5207 85.8561 37.7457C84.0551 37.9717 80.0041 37.9717 79.3291 36.8457C78.6531 35.7207 79.5541 35.9457 78.6531 35.7207C77.7531 35.4967 78.4291 35.0457 76.4031 33.4707C74.3771 31.8947 77.3041 30.5447 73.2521 30.5447C69.2011 30.5447 66.7251 30.3187 63.1241 30.5447C59.5221 30.7697 52.0951 32.5697 51.1951 32.3447C50.2951 32.1197 43.0921 33.4707 41.9661 32.7957C40.8411 32.1197 35.2131 35.2707 34.0891 35.0457C32.9641 34.8207 28.6871 35.2717 27.5621 35.9467C26.4361 36.6227 21.0341 37.9717 22.8351 39.0977C24.6351 40.2227 24.4101 41.3477 24.6351 42.0237C24.8611 42.6987 22.8351 44.2737 22.8351 44.2737C22.8351 44.2737 22.3841 44.2737 19.9091 43.3737C17.4331 42.4727 14.7321 42.0237 13.6061 42.6987C12.4811 43.3737 10.4551 44.7257 10.9051 45.6257C11.3561 46.5257 14.5061 48.5517 14.9571 47.8757C15.4071 47.2007 16.5331 45.8507 17.8831 46.0757C19.2341 46.3017 21.2601 45.1757 19.4591 47.4267C17.6581 49.6767 16.0821 50.8027 14.9571 51.0287C13.8321 51.2527 11.1311 51.4777 8.65509 51.7037C6.17809 51.9297 6.40309 50.8037 4.15309 53.0547C1.90309 55.3047 1.00209 53.9547 0.552091 56.4307C0.102091 58.9057 -0.347909 58.9057 0.552091 59.5817C1.45209 60.2567 -1.24891 60.4817 0.777091 61.1567C2.80209 61.8327 5.27809 62.5077 5.05309 63.1817C4.82709 63.8577 7.30409 62.2827 5.95309 64.0817C4.60209 65.8837 3.70309 67.4577 6.40309 65.6577C9.10409 63.8577 10.6791 65.2067 12.9301 64.0817C15.1811 62.9567 17.4321 62.7317 18.7821 61.8317C20.1331 60.9307 20.8081 59.5817 22.8341 58.9047C24.8601 58.2297 23.5091 59.1307 23.7341 60.2557C23.9591 61.3807 23.7341 61.6057 25.0851 60.7047C26.4351 59.8047 26.4351 60.4807 28.2361 59.3547C30.0361 58.2297 32.0621 57.1037 33.4131 57.7787C34.7631 58.4547 35.2131 58.4547 36.1141 58.4547C37.0141 58.4547 34.9891 58.2287 37.0141 58.4547C39.0401 58.6787 36.1141 57.7787 42.8661 59.3547C49.6191 60.9297 51.4201 59.8047 51.8691 62.2807C52.3201 64.7567 53.2201 62.0547 54.3451 63.6307C55.4701 65.2057 56.1461 63.8567 56.8211 66.5567C57.4961 69.2587 56.8211 76.6857 56.3711 77.5857C55.9211 78.4857 55.6961 78.4857 55.9211 80.5117C56.1461 82.5367 58.8471 92.2167 57.9471 92.8907C57.0471 93.5647 55.0211 93.7907 55.0211 93.7907L53.8961 97.8417C53.8961 97.8417 52.0961 101.218 50.5201 103.019C48.9441 104.819 46.9191 107.071 45.7931 108.645C44.6681 110.221 43.7671 112.923 42.1921 114.498C40.6171 116.073 39.2661 115.398 39.7161 118.774C40.1661 122.15 39.7161 125.751 40.1661 128.228C40.6171 130.704 41.7421 134.08 42.6421 135.431C43.5421 136.781 44.2181 136.781 45.7931 137.906C47.3691 139.031 49.3951 140.383 49.1691 141.508C48.9441 142.633 49.3941 149.612 49.3941 149.612C49.3941 149.612 50.7451 151.862 50.9691 154.338C51.1951 156.815 52.7701 159.29 52.7701 159.29L54.1211 162.217C54.1211 162.217 54.7961 162.443 55.6971 164.242C56.5971 166.043 56.5971 166.043 56.8221 166.942C57.0481 167.844 57.0481 167.618 57.0481 167.844C57.0481 168.068 56.8221 164.017 56.3721 162.891C55.9221 161.766 55.9221 160.416 55.4721 159.065C55.0221 157.714 55.6971 156.138 54.3471 154.113C52.9971 152.088 52.9971 151.862 52.3221 149.836C51.6471 147.811 50.7461 145.56 51.6471 145.109C52.5471 144.66 53.2221 141.734 55.0231 145.109C56.8231 148.485 57.0491 147.586 57.2741 150.287C57.4981 152.988 58.1741 153.889 58.8491 155.013C59.5241 156.138 61.0991 159.966 62.0001 161.54C62.9001 163.116 62.0001 160.64 64.0251 163.791C66.0511 166.942 66.2771 167.617 67.4021 170.093C68.5271 172.569 69.2031 172.569 69.8781 174.369C70.5531 176.171 70.1031 175.72 69.6521 177.745C69.2021 179.77 70.1021 182.022 70.1021 182.022C70.1021 182.022 73.2531 183.147 73.4781 183.822C73.7031 184.497 76.8541 185.622 77.3051 186.523C77.7551 187.424 80.6811 188.548 80.6811 188.548C80.6811 188.548 83.1571 190.124 84.0561 190.574C84.9571 191.024 87.6591 191.475 87.6591 191.475C87.6591 191.475 89.4591 191.926 90.1341 192.15C90.8091 192.375 92.8351 192.375 92.8351 192.375C92.8351 192.375 94.6361 191.025 95.3111 191.475C95.9861 191.924 97.5621 190.574 98.2371 191.699C98.9121 192.825 100.263 192.825 100.938 193.726C101.613 194.626 102.288 194.626 103.414 195.751C104.54 196.876 105.665 196.651 106.79 197.551C107.915 198.451 108.815 198.451 110.166 198.451C111.516 198.451 111.516 198.451 112.417 198.677C113.316 198.902 113.767 198.001 114.667 199.128C115.567 200.253 116.242 200.928 116.917 202.053C117.592 203.178 119.168 203.178 119.393 204.979C119.618 206.779 120.068 206.556 120.068 208.13C120.068 209.706 120.968 210.381 121.644 210.832C122.318 211.281 124.794 213.531 124.794 213.531L128.17 214.207L130.871 216.233L133.721 217.133L133.8 217.13Z" fill="#B2B2B2" fill-opacity="0.15"/>
<path d="M205.94 8.02979L219.445 6.34179C219.445 6.34179 224.171 6.34179 226.535 4.65379C228.898 2.96579 226.535 2.96579 233.625 1.61579C240.715 0.264787 238.69 -0.410214 242.404 0.264787C246.117 0.940787 247.13 0.940787 251.182 1.61579C255.233 2.29079 256.246 1.27879 259.959 2.29079C263.673 3.30379 265.361 2.96579 268.4 2.96579H277.853C282.58 2.96579 286.969 0.264786 288.657 1.95279C290.345 3.64079 291.358 2.96579 297.098 3.64079C302.837 4.31579 305.201 2.96479 307.564 3.64079C309.928 4.31579 313.98 3.30379 318.706 3.64079C323.432 3.97779 325.796 3.30379 327.484 3.30379C329.172 3.30379 330.859 0.939787 333.223 2.96579C335.587 4.99179 338.625 2.29079 338.962 4.99179C339.3 7.69279 343.689 5.66679 339.3 7.69279C334.911 9.71879 335.586 9.38079 332.547 12.0818C329.509 14.7828 334.573 17.1458 328.158 19.5098C321.743 21.8728 320.73 18.1588 319.042 22.2108C317.354 26.2618 319.042 27.2748 318.705 29.3008C318.367 31.3258 317.692 31.6638 315.666 33.3518C313.641 35.0398 313.641 33.3518 308.914 34.3648C304.187 35.3778 300.811 36.3908 298.786 36.3908C296.76 36.3908 292.371 38.0788 291.02 38.7538C289.669 39.4298 293.384 40.4418 286.293 42.4678C279.203 44.4938 277.514 44.1568 275.489 46.8568C273.463 49.5588 274.138 49.8968 272.788 51.5848C271.437 53.2728 267.386 60.0258 265.36 58.3378C263.335 56.6498 262.321 56.9868 260.633 55.2988C258.945 53.6108 257.932 51.2478 256.919 49.8968C255.906 48.5458 255.568 45.1698 255.231 43.1438C254.894 41.1178 251.854 36.3918 255.231 37.0668C258.607 37.7418 260.633 37.4048 261.646 36.7298C262.659 36.0538 263.672 33.6908 263.672 33.6908C263.672 33.6908 263.335 29.9768 262.321 27.9508C261.308 25.9248 261.984 24.2368 260.296 22.2118C258.608 20.1858 258.608 20.5238 256.244 18.4978C253.881 16.4718 254.556 15.4588 250.842 15.1218C247.128 14.7848 246.115 13.7708 244.764 14.1088C243.414 14.4458 239.025 11.7448 243.751 11.4078C248.478 11.0698 252.867 11.7448 252.867 11.7448C252.867 11.7448 258.944 9.04379 256.919 8.70679C254.894 8.36879 259.957 5.32979 255.231 6.34279C250.504 7.35579 245.103 8.70679 243.752 9.04379C242.402 9.38079 239.025 9.71879 235.649 10.7318C232.274 11.7448 228.221 11.4078 226.196 13.7708C224.17 16.1338 226.196 16.4718 224.17 16.1338C222.145 15.7968 225.858 13.7708 221.132 16.1338C216.405 18.4978 217.756 18.1598 215.393 17.4848C213.029 16.8098 211.341 15.7968 211.341 15.7968C211.341 15.7968 214.381 15.4588 209.991 15.1218C205.602 14.7848 205.602 14.7848 203.914 12.7578C202.226 10.7318 203.239 10.7318 204.251 10.0568C205.251 9.38079 205.931 8.02979 205.931 8.02979H205.94Z" fill="#B2B2B2" fill-opacity="0.15"/>
<path d="M198.51 23.2227C196.822 24.9107 192.77 27.2747 193.784 28.2877C194.797 29.3007 195.472 33.0147 197.498 32.0017C199.523 30.9887 197.16 27.6127 204.925 30.3137C212.691 33.0147 212.015 29.9767 213.703 34.0277C215.391 38.0787 216.741 41.1167 215.728 42.1307C214.716 43.1437 214.378 44.1567 211.001 45.1697C207.625 46.1827 206.274 47.5337 208.638 49.2207C211.001 50.9087 215.391 52.5967 217.416 53.6107C219.442 54.6227 225.519 54.9617 222.48 51.5857C219.441 48.2097 223.155 47.1957 223.155 47.1957C223.155 47.1957 228.895 51.5857 226.87 46.5207C224.844 41.4567 223.493 41.4567 224.844 41.4567C226.195 41.4567 228.895 43.1447 228.895 43.1447L230.246 40.4437L228.895 36.0547L224.506 31.6657C224.506 31.6657 228.219 28.2897 223.155 27.6147C218.091 26.9397 218.428 26.9397 215.727 25.2507C213.026 23.5627 212.689 22.8877 207.624 23.9007C202.56 24.9137 200.872 25.5887 200.872 25.5887L198.522 23.2227H198.51Z" fill="#B2B2B2" fill-opacity="0.15"/>
<path d="M123.22 27.2745C125.246 25.2485 130.648 20.5225 132.674 21.8725C134.699 23.2225 137.737 20.8595 140.101 22.8855C142.464 24.9115 145.165 27.2745 147.191 27.9495C149.217 28.6245 151.58 26.2615 153.606 27.2745C155.631 28.2875 162.721 22.2105 161.371 26.9375C160.02 31.6645 163.059 33.0145 159.345 33.3525C155.631 33.6905 151.58 36.3915 149.891 35.3785C148.203 34.3655 146.852 33.3525 144.151 34.7035C141.45 36.0535 142.801 36.0535 139.762 35.3785C136.724 34.7035 136.049 36.0535 135.374 35.0405C134.698 34.0285 132.673 34.3655 133.01 31.3265C133.347 28.2885 134.36 28.6255 132.334 28.6255C130.309 28.6255 128.621 28.9635 127.27 27.9505C125.93 26.9375 123.23 27.2745 123.23 27.2745H123.22Z" fill="#B2B2B2" fill-opacity="0.15"/>
</svg>
